<svg width="47" height="58" viewBox="0 0 47 58" fill="none" xmlns="http://www.w3.org/2000/svg">
<path d="M28.4779 51.5154C28.6971 51.296 29.0013 51.1699 29.3115 51.1699C29.6216 51.1699 29.9259 51.296 30.1452 51.5154C30.3645 51.7349 30.4907 52.039 30.4907 52.3492C30.4907 52.6593 30.3647 52.9636 30.1452 53.1828C29.9259 53.4021 29.6216 53.5284 29.3115 53.5284C29.0013 53.5284 28.6971 53.4022 28.4779 53.1828C28.2584 52.9636 28.1322 52.6593 28.1322 52.3492C28.1322 52.039 28.2584 51.7348 28.4779 51.5154Z" fill="black"/>
<path d="M13.6488 3.52832H20.4455C21.0434 3.52832 21.5283 4.05627 21.5283 4.70757C21.5283 5.35886 21.0434 5.88681 20.4455 5.88681H13.6488C13.0509 5.88681 12.5661 5.35886 12.5661 4.70757C12.5661 4.05627 13.0509 3.52832 13.6488 3.52832Z" fill="black"/>
<path fill-rule="evenodd" clip-rule="evenodd" d="M2.99601 33.5721V41.8069H19.656L16.122 36.8113C15.279 35.6197 15.1706 34.0731 15.8391 32.7749C16.5076 31.4766 17.8276 30.6701 19.2842 30.6701C20.113 30.6701 20.9356 30.9436 21.6007 31.4405L28.6189 36.6856C28.8742 36.8765 29.1904 36.9816 29.5089 36.9816C30.3304 36.9816 30.9985 36.3112 30.9985 35.4872V34.1151V8.70338H2.99601V33.5721ZM0.773586 4.25685V33.5721V47.2521C0.773586 49.4743 2.57586 51.2824 4.79106 51.2824H22.8387V56.1873C22.8387 56.8028 23.3363 57.302 23.9499 57.302C24.5635 57.302 25.0611 56.8028 25.0611 56.1873V48.0496H44.7776V56.1873C44.7776 56.8028 45.2752 57.302 45.8888 57.302C46.5024 57.302 47 56.8028 47 56.1873V48.0496C47 46.8202 46.003 45.8201 44.7776 45.8201H43.7789V34.1631C43.7789 29.8379 42.7784 25.4977 40.8854 21.6118C39.0728 17.8909 36.4285 14.5635 33.221 11.9542V4.25685C33.221 2.03447 31.4187 0.226562 29.2035 0.226562H4.79106C2.57586 0.226562 0.773586 2.03447 0.773586 4.25685ZM2.9959 47.252V44.0364H21.2198C21.2287 44.0364 21.2375 44.0358 21.2463 44.0352C21.2522 44.0348 21.2581 44.0344 21.264 44.0342C21.9762 44.9071 22.8127 45.6559 23.738 46.2623C23.1935 46.669 22.8386 47.3177 22.8386 48.0495V49.0528H4.79095C3.8012 49.0528 2.9959 48.2449 2.9959 47.252ZM29.5089 39.2111C28.7152 39.2111 27.9277 38.9491 27.2912 38.4736L20.2731 33.2284C19.9892 33.0164 19.638 32.8996 19.2843 32.8996C18.6532 32.8996 18.1035 33.2354 17.8139 33.7981C17.5243 34.3606 17.5694 35.0046 17.9347 35.5209L22.6239 42.1497C24.2497 44.4479 26.8975 45.82 29.7066 45.82H41.5566V34.163C41.5566 26.7714 38.5452 19.8746 33.2211 14.9027V34.1151V35.4871C33.2211 37.5405 31.5558 39.2111 29.5089 39.2111ZM30.9987 4.25682V6.47385H2.99612V4.25682C2.99612 3.26391 3.80141 2.45605 4.79128 2.45605H29.2036C30.1934 2.45605 30.9987 3.26391 30.9987 4.25682Z" fill="black"/>
<path d="M24.1924 18.9571C23.8403 18.9571 23.5548 19.2515 23.5548 19.6147V20.277C23.5538 22.0046 22.9005 23.6284 21.7153 24.8493C20.5308 26.0693 18.9569 26.7411 17.283 26.7411H17.2793C13.821 26.739 11.009 23.836 11.011 20.2695C11.012 18.5419 11.6653 16.9181 12.8506 15.6971C14.035 14.4771 15.6089 13.8054 17.2828 13.8054H17.2865C18.1705 13.8059 19.0282 13.9943 19.8356 14.3653C20.1574 14.5131 20.5342 14.364 20.6776 14.0323C20.8209 13.7006 20.6763 13.3119 20.3546 13.164C19.383 12.7175 18.351 12.4908 17.2872 12.4902H17.2828C15.2687 12.4902 13.3745 13.2987 11.9493 14.7667C10.523 16.2358 9.73691 18.1899 9.73574 20.2688C9.7346 22.3477 10.5185 24.3027 11.9432 25.7735C13.3679 27.2444 15.2627 28.0551 17.2786 28.0563H17.283C19.2972 28.0563 21.1913 27.2478 22.6165 25.7798C24.0428 24.3106 24.8289 22.3566 24.8301 20.2773V19.6147C24.8301 19.2515 24.5446 18.9571 24.1924 18.9571Z" fill="black" stroke="black" stroke-width="1.6"/>
<path d="M26.052 12.2071C25.7945 11.9557 25.3771 11.9557 25.1196 12.2071L17.727 19.4264L16.0499 17.7886C15.7924 17.5371 15.3749 17.5371 15.1175 17.7886C14.86 18.04 14.86 18.4477 15.1175 18.6992L17.2608 20.7922C17.3895 20.918 17.5583 20.9808 17.727 20.9808C17.8958 20.9808 18.0645 20.918 18.1933 20.7922L26.052 13.1177C26.3095 12.8662 26.3095 12.4586 26.052 12.2071Z" fill="black" stroke="black" stroke-width="1.6"/>
<path d="M16.2137 45.8554C16.4329 45.6361 16.7372 45.5098 17.0473 45.5098C17.3575 45.5098 17.6617 45.6359 17.881 45.8554C18.1004 46.0746 18.2266 46.3789 18.2266 46.689C18.2266 47.0004 18.1005 47.3034 17.881 47.5227C17.6617 47.7434 17.3575 47.8683 17.0473 47.8683C16.7372 47.8683 16.4329 47.7433 16.2137 47.5227C15.9944 47.3034 15.8681 47.0003 15.8681 46.689C15.8681 46.3789 15.9943 46.0746 16.2137 45.8554Z" fill="black"/>
</svg>
