<svg width="40" height="11" viewBox="0 0 40 11" fill="none" xmlns="http://www.w3.org/2000/svg">
<path d="M8.45443 0.220703H1.71388C0.836061 0.220703 0.125 0.938322 0.125 1.8227V8.62039C0.125 9.50477 0.836061 10.2224 1.71388 10.2224H8.45443C9.33225 10.2224 10.0424 9.50477 10.0424 8.62039V1.8227C10.0433 0.937385 9.33225 0.220703 8.45443 0.220703Z" fill="#1677FF"/>
<path d="M8.29047 6.50084C7.89419 6.36687 7.36113 6.1617 6.76811 5.94529C7.12411 5.32042 7.40891 4.60936 7.59628 3.83647H5.6411V3.12635H8.03565V2.73006H5.6411V1.5459H4.66397C4.49253 1.5459 4.49253 1.7164 4.49253 1.7164V2.72913H2.0708V3.12541H4.49253V3.83553H2.49238V4.23181H6.37089C6.22943 4.72459 6.03831 5.18833 5.81254 5.60897C4.55436 5.1902 3.21094 4.85106 2.36778 5.05998C1.82816 5.19395 1.4806 5.43284 1.27637 5.68391C0.339528 6.83341 1.01124 8.57968 2.98984 8.57968C4.15995 8.57968 5.28697 7.92202 6.1601 6.8381C7.46325 7.46953 10.0424 8.55438 10.0424 8.55438V7.0086C10.0433 7.0086 9.71915 6.98237 8.29047 6.50084ZM2.80529 7.91172C1.26231 7.91172 0.806073 6.68633 1.56866 6.01556C1.82348 5.78884 2.28815 5.67829 2.53548 5.65393C3.4517 5.56306 4.30048 5.91531 5.30196 6.40809C4.59839 7.33369 3.70184 7.91172 2.80529 7.91172Z" fill="white"/>
<path d="M21.6602 1.68497C21.6602 2.20211 22.0386 2.55061 22.5661 2.55061C23.0935 2.55061 23.472 2.20211 23.472 1.68497C23.472 1.17721 23.0935 0.819336 22.5661 0.819336C22.0386 0.819336 21.6602 1.17721 21.6602 1.68497Z" fill="#1677FF"/>
<path d="M20.7043 1.03809H19.1323V8.30233H20.7043V1.03809Z" fill="black"/>
<path d="M16.376 1.28711H14.2662L11.9082 8.30309H13.3612L13.7594 6.92969H16.257L16.6355 8.30309H18.496L16.376 1.28711ZM14.0873 5.78487L15.0223 2.5509H15.0616L15.9469 5.78487H14.0873Z" fill="black"/>
<path d="M23.3518 2.96875H21.7798V8.30311H23.3518V2.96875Z" fill="black"/>
<path d="M39.7823 2.97905L39.7917 2.96875H38.3096L37.3737 6.21302H37.3241L36.2495 2.96875H34.4883L36.6074 8.32278L35.7221 9.95475V9.9941H37.1049L39.7823 2.97905Z" fill="black"/>
<path d="M27.2634 2.8584C26.6863 2.8584 26.2385 3.07762 25.7307 3.49545V2.96801H24.1587V9.99336H25.7307V8.25178C26.0296 8.33141 26.3078 8.37169 26.646 8.37169C28.0494 8.37169 29.3132 7.33648 29.3132 5.4956C29.3132 3.84395 28.3979 2.8584 27.2634 2.8584ZM26.2675 7.38614C26.0886 7.38614 25.919 7.36647 25.7298 7.30651V4.42104C26.0586 4.19246 26.3265 4.08285 26.6647 4.08285C27.2521 4.08285 27.7196 4.55033 27.7196 5.54619C27.7206 6.81935 27.0338 7.38614 26.2675 7.38614Z" fill="black"/>
<path d="M34.1789 6.96831V4.73957C34.1789 3.52543 33.4622 2.8584 32.1984 2.8584C31.3918 2.8584 30.8353 2.99799 29.8198 3.30621L30.098 4.53066C31.0236 4.11283 31.4312 3.93389 31.8593 3.93389C32.3764 3.93389 32.606 4.30207 32.606 4.86979V4.90914C30.8044 5.24734 30.247 5.43658 29.8994 5.78508C29.6409 6.04365 29.5312 6.41183 29.5312 6.83996C29.5312 7.86486 30.3276 8.41197 31.0733 8.41197C31.6307 8.41197 32.0785 8.20306 32.6856 7.74495L32.7952 8.30237H34.3672L34.1789 6.96831ZM32.6069 7.00859C32.1891 7.23718 31.9502 7.32712 31.6719 7.32712C31.2934 7.32712 31.0545 7.07792 31.0545 6.6807C31.0545 6.53174 31.0845 6.38185 31.2035 6.26287C31.3928 6.07363 31.7609 5.93404 32.6069 5.73543V7.00859Z" fill="black"/>
</svg>
