<svg width="42" height="11" viewBox="0 0 42 11" fill="none" xmlns="http://www.w3.org/2000/svg">
<path fill-rule="evenodd" clip-rule="evenodd" d="M4.63912 0.0419922L0 10.3082H5.55368L6.24217 8.67135H7.81592L8.50441 10.3082H14.6174V9.05891L15.1622 10.3082H18.3243L18.869 9.0325V10.3082H31.5825L33.1284 8.71386L34.5759 10.3082L41.1058 10.3214L36.452 5.20376L41.1058 0.0419922H34.6772L33.1723 1.60688L31.7704 0.0419922H17.9398L16.7522 2.69179L15.5367 0.0419922H9.99459V1.24879L9.37807 0.0419922H4.63912ZM5.71376 1.49981H8.42088L11.498 8.46139V1.49981H14.4636L16.8403 6.49123L19.0307 1.49981H21.9814V8.8665H20.186L20.1713 3.09401L17.5537 8.8665H15.9476L13.3154 3.09401V8.8665H9.62172L8.92147 7.21499H5.1383L4.4395 8.86505H2.46048L5.71376 1.49981ZM30.9247 1.49981H23.6241V8.86215H30.8117L33.1284 6.42215L35.3613 8.86215H37.6955L34.3028 5.20232L37.6955 1.49981H35.4626L33.1577 3.91179L30.9247 1.49981ZM7.03075 2.74621L5.78434 5.68825H8.27571L7.03075 2.74621ZM25.4268 4.36986V3.02507V3.02379H29.9822L31.9699 5.17444L29.8941 7.33685H25.4268V5.86873H29.4096V4.36986H25.4268Z" fill="white"/>
</svg>
