<svg width="23" height="32" viewBox="0 0 23 32" fill="none" xmlns="http://www.w3.org/2000/svg">
<path d="M18.4961 8.08984H13.7109V5.02734C13.7109 2.65266 11.779 0.720703 9.4043 0.720703C7.02962 0.720703 5.09766 2.65266 5.09766 5.02734V12.875H4.61914C2.24446 12.875 0.3125 14.807 0.3125 17.1816V20.0371C0.3125 21.2135 0.916291 22.6711 1.74805 23.5028L3.18359 24.9384V30.5645C3.18359 31.3573 3.82634 32 4.61914 32H21.3672C22.16 32 22.8027 31.3573 22.8027 30.5645V12.3965C22.8027 10.0218 20.8708 8.08984 18.4961 8.08984ZM3.18359 17.1816C3.18359 16.3901 3.82758 15.7461 4.61914 15.7461H6.5332C7.32601 15.7461 7.96875 15.1034 7.96875 14.3105V5.02734C7.96875 4.23578 8.61274 3.5918 9.4043 3.5918C10.1959 3.5918 10.8398 4.23578 10.8398 5.02734V9.52539C10.8398 10.3182 11.4826 10.9609 12.2754 10.9609H18.4961C19.2877 10.9609 19.9316 11.6049 19.9316 12.3965V22.9082H5.21374L3.7782 21.4727C3.48927 21.1838 3.18359 20.4459 3.18359 20.0371V17.1816ZM6.05469 29.1289V25.7793H19.9316V29.1289H6.05469Z" fill="#474340"/>
</svg>
