<svg width="33" height="20" viewBox="0 0 33 20" fill="none" xmlns="http://www.w3.org/2000/svg">
<path fill-rule="evenodd" clip-rule="evenodd" d="M16.6548 17.6227C14.9667 19.0794 12.777 19.9588 10.3843 19.9588C5.04535 19.9588 0.717285 15.5805 0.717285 10.1796C0.717285 4.7787 5.04535 0.400391 10.3843 0.400391C12.777 0.400391 14.9667 1.27979 16.6548 2.73653C18.3429 1.27979 20.5326 0.400391 22.9253 0.400391C28.2642 0.400391 32.5923 4.7787 32.5923 10.1796C32.5923 15.5805 28.2642 19.9589 22.9253 19.9589C20.5326 19.9589 18.3429 19.0794 16.6548 17.6227Z" fill="#ED0006"/>
<path fill-rule="evenodd" clip-rule="evenodd" d="M16.6548 17.6227C18.7333 15.829 20.0512 13.16 20.0512 10.1796C20.0512 7.19924 18.7333 4.53026 16.6548 2.73657C18.3429 1.27981 20.5326 0.400391 22.9253 0.400391C28.2643 0.400391 32.5923 4.7787 32.5923 10.1796C32.5923 15.5805 28.2643 19.9589 22.9253 19.9589C20.5326 19.9589 18.3429 19.0794 16.6548 17.6227Z" fill="#F9A000"/>
<path fill-rule="evenodd" clip-rule="evenodd" d="M16.6548 17.6224C18.7333 15.8287 20.0512 13.1598 20.0512 10.1794C20.0512 7.199 18.7333 4.53002 16.6548 2.73633C14.5763 4.53002 13.2583 7.199 13.2583 10.1794C13.2583 13.1598 14.5763 15.8287 16.6548 17.6224Z" fill="#FF5E00"/>
</svg>
