<svg width="38" height="22" viewBox="0 0 38 22" fill="none" xmlns="http://www.w3.org/2000/svg">
<rect x="1.80762" y="1" width="34.4893" height="20" rx="1" stroke="#6E768A" stroke-width="2"/>
<path fill-rule="evenodd" clip-rule="evenodd" d="M18.7615 17C21.9434 17 24.5229 14.3137 24.5229 11C24.5229 7.68629 21.9434 5 18.7615 5C15.5795 5 13 7.68629 13 11C13 14.3137 15.5795 17 18.7615 17ZM17.713 9.64583C17.713 10.0417 18.005 10.2958 18.9133 10.5417C19.8215 10.7875 20.7937 11.1917 20.7937 12.375C20.7937 13.2292 20.1736 13.7 19.3934 13.8542V14.75H18.1931V13.8458C17.4249 13.675 16.7687 13.1625 16.7207 12.25H17.6009C17.6449 12.7417 17.969 13.125 18.7932 13.125C19.6775 13.125 19.8735 12.6667 19.8735 12.3792C19.8735 11.9917 19.6735 11.625 18.6732 11.375C17.5569 11.0958 16.7927 10.6167 16.7927 9.65417C16.7927 8.85 17.4169 8.325 18.1931 8.15V7.25H19.3934V8.1625C20.2296 8.375 20.6497 9.03333 20.6777 9.75H19.7935C19.7695 9.22917 19.5054 8.875 18.7932 8.875C18.1171 8.875 17.713 9.19167 17.713 9.64583Z" fill="#6E768A"/>
<path d="M7.52905 2.5C7.52905 3.88071 6.2393 5 4.64831 5V17C6.2393 17 7.52905 18.1193 7.52905 19.5C7.52905 20.8807 6.2393 22 4.64831 22C3.70584 22 2.86908 21.6072 2.34351 21H1.76758V1H2.34351C2.86908 0.392777 3.70584 0 4.64831 0C6.2393 0 7.52905 1.11929 7.52905 2.5Z" fill="#6E768A"/>
<path d="M33.4559 5C31.8649 5 30.5752 3.88071 30.5752 2.5C30.5752 1.11929 31.8649 0 33.4559 0C34.3984 0 35.2352 0.392777 35.7607 1H36.3367V21H35.7607C35.2352 21.6072 34.3984 22 33.4559 22C31.8649 22 30.5752 20.8807 30.5752 19.5C30.5752 18.1193 31.8649 17 33.4559 17V5Z" fill="#6E768A"/>
</svg>