<svg width="17" height="19" viewBox="0 0 17 19" fill="none" xmlns="http://www.w3.org/2000/svg">
<path fill-rule="evenodd" clip-rule="evenodd" d="M5.3124 18.1347L5.63429 16.0818L4.91724 16.065H1.49316L3.87277 0.915665C3.88019 0.869792 3.90415 0.827207 3.93915 0.796913C3.97432 0.766618 4.01915 0.75 4.06605 0.75H9.83956C11.7564 0.75 13.0792 1.1504 13.7697 1.94082C14.0934 2.31162 14.2996 2.69921 14.3995 3.12558C14.5041 3.57306 14.5059 4.10762 14.4038 4.75973L14.3964 4.80716V5.22504L14.7202 5.40923C14.9927 5.55447 15.2095 5.72066 15.3757 5.9109C15.6526 6.22804 15.8317 6.63104 15.9074 7.10864C15.9857 7.59993 15.9598 8.18469 15.8317 8.84666C15.6839 9.60799 15.4451 10.2712 15.1226 10.8137C14.826 11.3136 14.4481 11.7284 13.9993 12.0497C13.5709 12.3551 13.0619 12.5869 12.4864 12.7352C11.9287 12.881 11.2928 12.9545 10.5954 12.9545H10.1461C9.8249 12.9545 9.51284 13.0707 9.26785 13.2789C9.02216 13.4915 8.85975 13.782 8.80992 14.0997L8.77596 14.2845L8.20718 17.903L8.18149 18.0358C8.17459 18.0779 8.16287 18.0988 8.14563 18.113C8.13028 18.126 8.10821 18.1347 8.08666 18.1347H5.3124Z" fill="#28356A"/>
<path fill-rule="evenodd" clip-rule="evenodd" d="M15.0268 4.85547C15.0097 4.96609 14.9899 5.07913 14.9678 5.19528C14.2065 9.12036 11.6015 10.4763 8.27467 10.4763H6.58074C6.17385 10.4763 5.83093 10.7729 5.76765 11.1759L4.65474 18.2638C4.61353 18.5285 4.81663 18.7669 5.08249 18.7669H8.08692C8.4426 18.7669 8.74484 18.5074 8.80087 18.1551L8.83035 18.0019L9.39603 14.3976L9.43241 14.1999C9.48775 13.8464 9.79068 13.5867 10.1464 13.5867H10.5957C13.5065 13.5867 15.7852 12.4003 16.4512 8.96646C16.7293 7.53208 16.5854 6.33434 15.8492 5.49199C15.6264 5.23804 15.3501 5.02719 15.0268 4.85547Z" fill="#298FC2"/>
<path fill-rule="evenodd" clip-rule="evenodd" d="M14.2303 4.53707C14.114 4.50297 13.994 4.47216 13.8709 4.44429C13.7471 4.41711 13.6204 4.39305 13.4898 4.37193C13.0331 4.29784 12.5326 4.2627 11.9966 4.2627H7.47134C7.35979 4.2627 7.25393 4.28797 7.15928 4.33367C6.95049 4.43442 6.79549 4.6328 6.7579 4.87567L5.79516 10.9979L5.76758 11.1763C5.83085 10.7733 6.17378 10.4768 6.58067 10.4768H8.2746C11.6014 10.4768 14.2064 9.12014 14.9677 5.19575C14.9905 5.0796 15.0096 4.96656 15.0267 4.85594C14.8341 4.75329 14.6255 4.66552 14.4009 4.59074C14.3453 4.57221 14.2881 4.55438 14.2303 4.53707Z" fill="#22284F"/>
<path fill-rule="evenodd" clip-rule="evenodd" d="M6.75793 4.87526C6.79551 4.63239 6.95051 4.43401 7.1593 4.33395C7.25464 4.28808 7.35981 4.2628 7.47136 4.2628H11.9966C12.5326 4.2628 13.0332 4.29812 13.4899 4.37221C13.6204 4.39316 13.7471 4.41739 13.8709 4.44457C13.994 4.47227 14.114 4.50325 14.2304 4.53718C14.2881 4.55449 14.3454 4.5725 14.4014 4.59033C14.6261 4.66511 14.8348 4.75357 15.0274 4.85553C15.254 3.40505 15.0255 2.41746 14.2445 1.52318C13.3833 0.538535 11.8292 0.117188 9.84046 0.117188H4.06677C3.66057 0.117188 3.31403 0.413723 3.25127 0.817414L0.846486 16.1225C0.799074 16.4253 1.03166 16.6984 1.33579 16.6984H4.9002L6.75793 4.87526Z" fill="#28356A"/>
</svg>
