<svg width="36" height="12" viewBox="0 0 36 12" fill="none" xmlns="http://www.w3.org/2000/svg">
<path fill-rule="evenodd" clip-rule="evenodd" d="M9.45866 11.7619H6.49021L4.26424 3.26971C4.15858 2.87907 3.93425 2.53372 3.60426 2.37095C2.78074 1.96191 1.87327 1.63638 0.883301 1.47219V1.14524H5.66524C6.32522 1.14524 6.8202 1.63638 6.9027 2.20677L8.05766 8.33249L11.0247 1.14524H13.9106L9.45866 11.7619ZM15.5606 11.7619H12.7572L15.0656 1.14524H17.8691L15.5606 11.7619ZM21.4959 4.08639C21.5784 3.51458 22.0734 3.18763 22.6509 3.18763C23.5584 3.10554 24.5469 3.26972 25.3719 3.67735L25.8668 1.39152C25.0419 1.06457 24.1344 0.900391 23.3109 0.900391C20.5899 0.900391 18.61 2.37096 18.61 4.41192C18.61 5.96459 20.0124 6.77984 21.0024 7.27097C22.0734 7.76069 22.4859 8.08764 22.4034 8.57736C22.4034 9.31194 21.5784 9.63889 20.7549 9.63889C19.7649 9.63889 18.775 9.39403 17.869 8.98499L17.374 11.2722C18.3639 11.6799 19.435 11.844 20.4249 11.844C23.4759 11.9247 25.3719 10.4556 25.3719 8.25041C25.3719 5.47345 21.4959 5.31069 21.4959 4.08639ZM35.1833 11.7619L32.9574 1.14524H30.5664C30.0714 1.14524 29.5764 1.47219 29.4114 1.96191L25.2895 11.7619H28.1754L28.7515 10.2107H32.2974L32.6274 11.7619H35.1833ZM30.9789 4.0043L31.8024 8.00556H29.4939L30.9789 4.0043Z" fill="#172B85"/>
</svg>
